<svg xmlns="http://www.w3.org/2000/svg" width="1280" height="720" viewBox="0 0 1280 720" role="img" aria-label="Chat UI placeholder">
  <defs>
    <linearGradient id="bg" x1="0" y1="0" x2="1" y2="1">
      <stop offset="0%" stop-color="#050508"/>
      <stop offset="100%" stop-color="#0c0c14"/>
    </linearGradient>
    <radialGradient id="glow" cx="20%" cy="30%" r="50%">
      <stop offset="0%" stop-color="#7c3aed" stop-opacity="0.35"/>
      <stop offset="100%" stop-color="#7c3aed" stop-opacity="0"/>
    </radialGradient>
  </defs>
  <rect width="1280" height="720" fill="url(#bg)"/>
  <rect width="1280" height="720" fill="url(#glow)"/>
  <rect x="0" y="0" width="72" height="720" fill="#050508"/>
  <rect x="72" y="0" width="220" height="720" fill="#0e0e14"/>
  <rect x="292" y="0" width="988" height="56" fill="#0e0e14"/>
  <rect x="292" y="56" width="988" height="1" fill="#222233"/>
  <circle cx="36" cy="48" r="18" fill="#7c3aed"/>
  <rect x="96" y="28" width="140" height="14" rx="4" fill="#1a1a26"/>
  <rect x="96" y="80" width="170" height="10" rx="3" fill="#222233"/>
  <rect x="96" y="110" width="150" height="10" rx="3" fill="#1a1a26"/>
  <rect x="96" y="140" width="160" height="10" rx="3" fill="#1a1a26"/>
  <rect x="320" y="88" width="420" height="12" rx="4" fill="#1a1a26"/>
  <rect x="320" y="120" width="560" height="10" rx="3" fill="#222233"/>
  <rect x="320" y="148" width="480" height="10" rx="3" fill="#222233"/>
  <rect x="320" y="200" width="380" height="12" rx="4" fill="#1a1a26"/>
  <rect x="320" y="232" width="520" height="10" rx="3" fill="#222233"/>
  <text x="640" y="400" text-anchor="middle" fill="#8b8ba0" font-family="Segoe UI, sans-serif" font-size="22">Replace with chat.png</text>
  <text x="640" y="432" text-anchor="middle" fill="#222233" font-family="Segoe UI, sans-serif" font-size="14">assets/screenshots/</text>
</svg>
